<?xml version="1.0" standalone="no"?><!DOCTYPE svg PUBLIC "-//W3C//DTD SVG 1.1//EN" "http://www.w3.org/Graphics/SVG/1.1/DTD/svg11.dtd"><svg t="1649216246668" class="icon" viewBox="0 0 1024 1024" version="1.1" xmlns="http://www.w3.org/2000/svg" p-id="2333" width="100" height="100" xmlns:xlink="http://www.w3.org/1999/xlink"><defs><style type="text/css">@font-face { font-family: feedback-iconfont; src: url("//at.alicdn.com/t/font_1031158_u69w8yhxdu.woff2?t=1630033759944") format("woff2"), url("//at.alicdn.com/t/font_1031158_u69w8yhxdu.woff?t=1630033759944") format("woff"), url("//at.alicdn.com/t/font_1031158_u69w8yhxdu.ttf?t=1630033759944") format("truetype"); }
</style></defs><path d="M512 860.8C320 860.8 163.2 704 163.2 512S320 163.2 512 163.2 860.8 320 860.8 512 704 860.8 512 860.8z m172.8-272c-9.6-6.4-19.2-9.6-32-12.8-28.8-6.4-64-9.6-86.4-38.4 0 0-12.8-12.8 16-44.8 28.8-32 28.8-83.2 22.4-121.6-6.4-38.4-44.8-64-86.4-64-41.6 0-80 25.6-86.4 64-6.4 38.4-3.2 89.6 22.4 121.6 28.8 32 16 44.8 16 44.8-22.4 28.8-57.6 32-86.4 38.4-12.8 3.2-22.4 6.4-32 12.8-19.2 9.6-9.6 96-9.6 96h348.8c-6.4 0 0-83.2-6.4-96z" p-id="2334" fill="#72adf3"></path></svg>